<?xml version="1.0" encoding="UTF-8" standalone="no"?>
<!-- Created with Inkscape (http://www.inkscape.org/) -->

<svg
   width="156.02336mm"
   height="59.020973mm"
   viewBox="0 0 156.02336 59.020973"
   version="1.1"
   id="svg1"
   xml:space="preserve"
   inkscape:version="1.3 (0e150ed6c4, 2023-07-21)"
   sodipodi:docname="logoCaja.svg"
   xmlns:inkscape="http://www.inkscape.org/namespaces/inkscape"
   xmlns:sodipodi="http://sodipodi.sourceforge.net/DTD/sodipodi-0.dtd"
   xmlns="http://www.w3.org/2000/svg"
   xmlns:svg="http://www.w3.org/2000/svg"><sodipodi:namedview
     id="namedview1"
     pagecolor="#ffffff"
     bordercolor="#000000"
     borderopacity="0.25"
     inkscape:showpageshadow="2"
     inkscape:pageopacity="0.0"
     inkscape:pagecheckerboard="0"
     inkscape:deskcolor="#d1d1d1"
     inkscape:document-units="mm"
     inkscape:zoom="1.3843855"
     inkscape:cx="211.64625"
     inkscape:cy="-5.4175661"
     inkscape:window-width="1920"
     inkscape:window-height="991"
     inkscape:window-x="-9"
     inkscape:window-y="-9"
     inkscape:window-maximized="1"
     inkscape:current-layer="layer1" /><defs
     id="defs1" /><g
     inkscape:label="Capa 1"
     inkscape:groupmode="layer"
     id="layer1"
     transform="translate(-27.345585,-48.888779)"><path
       style="fill:#0d47a1;fill-opacity:1;stroke-width:4.52618"
       d="m 51.936997,104.65811 c -8.64718,-2.79207 -10.09554,-3.30135 -10.48565,-3.68703 l -0.45261,-0.44764 -0.0416,-7.506491 -0.0416,-7.50644 -5.21787,-2.03343 c -2.869824,-1.11837 -5.377304,-2.1804 -5.57217,-2.36004 -0.194852,-0.17969 -0.39844,-0.50259 -0.452437,-0.71763 -0.252063,-1.00431 -0.122931,-1.17744 5.244627,-7.03042 3.7381,-4.07619 5.11299,-5.67085 5.01263,-5.81392 -0.076,-0.10818 -2.83722,-2.41209 -6.135922,-5.11929 -3.363019,-2.75998 -6.096849,-5.11404 -6.223496,-5.35891 -0.124244,-0.24034 -0.22563,-0.59293 -0.225313,-0.78375 8.69e-4,-0.53405 0.546789,-1.3077 1.09223,-1.54786 0.270258,-0.11904 3.580488,-0.83269 7.356071,-1.58593 3.77559,-0.75329 10.21379,-2.05036 14.30711,-2.88236 6.31046,-1.28268 7.51519,-1.4883 7.92082,-1.35188 0.26297,0.0887 3.12316,2.36642 6.35562,5.06203 3.23251,2.69557 5.92205,4.90108 5.97682,4.90108 0.0548,0 2.24598,-1.35016 4.86935,-3.00031 2.62333,-1.6502 4.94028,-3.04313 5.14876,-3.09545 0.43225,-0.10863 0.54753,-0.0806 12.88612,3.14302 4.92747,1.28729 9.125503,2.44957 9.328953,2.58291 0.80942,0.53033 0.98594,1.87497 0.33675,2.56585 -0.16792,0.17833 -2.47432,1.70935 -5.125763,3.40187 -2.65148,1.69252 -4.82156,3.11352 -4.82242,3.15783 -8.6e-4,0.0453 2.48718,2.04714 5.52896,4.45072 3.041813,2.40363 5.655413,4.57389 5.808033,4.82283 0.15254,0.24894 0.27746,0.62235 0.27746,0.82978 0,0.55894 -0.53278,1.33142 -1.09167,1.58276 -0.27021,0.1213 -2.9355,0.80462 -5.922783,1.5179 -2.98728,0.71333 -5.55022,1.33047 -5.69542,1.37144 -0.24759,0.0697 -0.26388,0.61995 -0.26388,8.82238 0,9.287181 0.009,9.174431 -0.71111,9.825341 -0.18648,0.16882 -2.96659,0.90845 -7.82309,2.08132 -4.14358,1.00069 -8.78975,2.12567 -10.3249,2.49999 -7.27153,1.77304 -10.25863,2.47242 -10.51173,2.46124 -0.15163,-0.005 -4.79051,-1.46992 -10.30868,-3.25165 z"
       id="path1" /><path
       style="fill:#0d47a1;fill-opacity:1;stroke:#ffffff;stroke-width:1.19755;stroke-dasharray:none;stroke-opacity:1;paint-order:stroke fill markers"
       d="m 165.69497,89.817259 v -5.73317 h 2.26309 2.26309 v 2.11223 2.11223 l 1.471,-0.005 1.47101,-0.005 1.81047,-2.10173 1.81048,-2.10174 2.6154,-0.005 2.61536,-0.005 -0.57858,0.65331 c -0.31819,0.35938 -1.46123,1.61807 -2.53995,2.79723 -1.07873,1.17916 -1.96133,2.20393 -1.96133,2.2773 0,0.0733 0.88573,1.10592 1.96834,2.29468 1.08257,1.18876 2.22765,2.44993 2.54467,2.80261 l 0.57631,0.64122 -2.62011,-0.003 -2.62011,-0.003 -1.81048,-2.02986 -1.81047,-2.02985 -1.47101,-0.004 -1.471,-0.004 v 2.03678 2.03678 h -2.26309 -2.26309 z"
       id="path6" /><path
       style="fill:#0d47a1;fill-opacity:1;stroke:#ffffff;stroke-width:1.19755;stroke-dasharray:none;stroke-opacity:1;paint-order:stroke fill markers"
       d="m 149.60051,95.337029 c -1.37284,-0.43768 -2.2988,-1.34627 -2.78035,-2.72861 -0.27836,-0.7986 -0.28695,-4.56587 -0.0136,-5.50687 0.31819,-1.09243 1.09031,-2.01881 2.09277,-2.51103 l 0.87776,-0.43089 4.95141,-0.0453 c 5.73413,-0.0525 6.14692,0.009 7.29358,1.0646 0.82349,0.75904 1.24533,1.54424 1.36288,2.53661 l 0.0883,0.74405 h -2.57567 c -2.47184,0 -2.5797,-0.0136 -2.67479,-0.3123 -0.0543,-0.17154 -0.31367,-0.44312 -0.57591,-0.60293 -0.41913,-0.25573 -0.77384,-0.29104 -2.92618,-0.29149 l -2.4493,-5.9e-4 -0.45913,0.41505 c -0.57211,0.51694 -0.80779,1.70633 -0.598,3.01747 0.10818,0.67512 0.24079,0.9595 0.598,1.2824 l 0.45913,0.41505 2.4493,-5.9e-4 c 2.15234,-4.9e-4 2.5071,-0.0362 2.92618,-0.29148 0.26206,-0.15978 0.52141,-0.43135 0.57591,-0.60289 0.095,-0.29963 0.20322,-0.31231 2.65374,-0.31231 h 2.55467 l -0.001,0.56578 c -0.003,1.25017 -1.10706,2.81555 -2.41083,3.41903 -0.64244,0.29737 -0.9638,0.31683 -5.73485,0.34625 -3.86282,0.0226 -5.20275,-0.0181 -5.68424,-0.16928 z"
       id="path5" /><path
       style="fill:#0d47a1;fill-opacity:1;stroke:#ffffff;stroke-width:1.19755;stroke-dasharray:none;stroke-opacity:1;paint-order:stroke fill markers"
       d="m 130.28884,95.337659 c -1.37397,-0.43904 -2.29894,-1.34726 -2.78039,-2.72924 -0.27836,-0.7986 -0.28696,-4.56587 -0.0136,-5.50687 0.31819,-1.09243 1.09036,-2.01881 2.09282,-2.51103 l 0.87771,-0.43089 h 5.58228 5.58232 l 0.77239,0.40735 c 0.88265,0.46561 1.47544,1.10525 1.92942,2.08191 0.28017,0.60243 0.31547,0.95946 0.31547,3.16833 0,2.27988 -0.0272,2.5529 -0.34761,3.24377 -0.4413,0.95779 -0.96475,1.5079 -1.91557,2.01311 l -0.75433,0.40102 -5.35601,0.0317 c -4.12416,0.0226 -5.50085,-0.0136 -5.98596,-0.16927 z m 8.98967,-3.17475 c 0.2331,-0.1204 0.51829,-0.44311 0.63371,-0.71668 0.27112,-0.64299 0.27112,-2.61495 0,-3.25799 -0.36028,-0.85368 -0.71156,-0.93583 -4.00472,-0.93583 h -2.94713 l -0.45914,0.41505 c -0.57206,0.51694 -0.80778,1.70633 -0.59795,3.01747 0.10818,0.67512 0.24079,0.9595 0.59795,1.2824 l 0.45914,0.41505 h 2.94713 c 2.28206,0 3.04277,-0.0493 3.37101,-0.21906 z"
       id="path4" /><path
       style="fill:#0d47a1;fill-opacity:1;stroke:#ffffff;stroke-width:1.19755;stroke-dasharray:none;stroke-opacity:1;paint-order:stroke fill markers"
       d="m 116.0579,91.401419 v -4.14901 h -2.6403 -2.64026 v -1.58416 -1.58416 h 7.54365 7.5436 v 1.58416 1.58416 h -2.64026 -2.64025 v 4.14901 4.14902 h -2.26309 -2.26309 z"
       id="path3" /><path
       style="fill:#0d47a1;fill-opacity:1;stroke:#ffffff;stroke-width:1.19755;stroke-dasharray:none;stroke-opacity:1;paint-order:stroke fill markers"
       d="m 96.084637,95.308559 c -1.02269,-0.32181 -2.25753,-1.56448 -2.55001,-2.56666 l -0.21499,-0.737 2.27812,-0.0407 c 1.78661,-0.0317 2.31084,0.003 2.42992,0.16385 0.35531,0.48172 0.82807,0.55681 3.502993,0.55681 2.85376,0 3.36273,-0.1127 3.36273,-0.74442 0,-0.63398 -0.30552,-0.68513 -4.58661,-0.76782 -3.478093,-0.067 -4.178703,-0.11904 -4.692063,-0.34761 -1.35469,-0.6028 -2.03017,-1.69075 -2.03017,-3.26998 0,-1.15893 0.33991,-2.01986 1.02418,-2.59586 0.90257,-0.75945 1.227,-0.79878 6.588263,-0.79878 4.76213,0 5.00836,0.0136 5.65773,0.32046 0.37341,0.17606 0.90985,0.5497 1.19215,0.82983 0.48787,0.48421 1.21718,1.80291 1.22034,2.20664 0.001,0.14213 -0.53906,0.18874 -2.20212,0.18874 -2.13038,0 -2.2185,-0.0136 -2.65184,-0.37703 -0.43994,-0.37024 -0.49539,-0.37703 -3.0434,-0.37703 -2.819633,0 -3.265733,0.1118 -3.265733,0.81988 0,0.71884 0.21952,0.75908 4.586563,0.84037 3.72812,0.0693 4.14847,0.10365 4.76751,0.38971 1.24877,0.57686 1.95966,1.72144 1.95966,3.1551 0,1.42236 -0.62032,2.455 -1.80378,3.00267 -0.64643,0.29918 -0.96109,0.31819 -5.73815,0.34897 -4.191333,0.0272 -5.180083,-0.009 -5.791203,-0.19915 z"
       id="path2" /><path
       style="fill:#ffffff;fill-opacity:1;stroke-width:4.52618"
       d="m 93.151307,63.253909 c 2.12916,-1.36378 3.82598,-2.52248 3.77072,-2.57489 -0.0552,-0.0525 -3.62597,-1.02487 -7.93498,-2.16098 -5.25761,-1.38624 -7.92254,-2.02483 -8.102,-1.94151 -0.59918,0.27836 -6.88609,4.35428 -6.82385,4.42407 0.15253,0.17154 14.6378,4.80287 14.91616,4.76937 0.16656,-0.0181 2.04484,-1.15227 4.17395,-2.51606 z"
       id="path12" /><path
       style="fill:#ffffff;fill-opacity:1;stroke-width:4.52618"
       d="m 55.161127,63.319509 c 6.23428,-1.46299 11.38168,-2.70203 11.43857,-2.75341 0.13669,-0.12356 -9.4546,-7.92905 -9.79646,-7.97232 -0.34168,-0.0453 -23.428002,4.68614 -23.468448,4.80771 -0.03802,0.11406 10.179118,8.57091 10.360018,8.57503 0.0722,0.002 5.23202,-1.19401 11.46632,-2.65701 z"
       id="path11" /><path
       style="fill:#ffffff;fill-opacity:1;stroke-width:4.52618"
       d="m 87.070117,79.690299 c 6.19312,-1.50392 11.30698,-2.7769 11.36415,-2.82886 0.10682,-0.0969 -0.93742,-1.01038 -3.12655,-2.73481 -0.68477,-0.53934 -2.40752,-1.92309 -3.82838,-3.07495 l -2.58341,-2.09427 -11.35075,2.75346 c -6.24287,1.51441 -11.39696,2.79632 -11.45354,2.84864 -0.10591,0.0982 9.35407,7.85505 9.58758,7.86152 0.072,0.002 5.19773,-1.22686 11.3909,-2.73073 z"
       id="path10" /><path
       style="fill:#ffffff;fill-opacity:1;stroke-width:4.52618"
       d="m 54.710527,79.860029 c 2.61571,-2.86254 4.70816,-5.25064 4.64982,-5.30681 -0.15298,-0.14755 -15.60136,-5.42123 -15.73518,-5.37162 -0.14172,0.0525 -9.18388,9.97248 -9.18302,10.07455 9.7e-4,0.1136 15.12871,5.87366 15.33441,5.83877 0.0979,-0.0181 2.31824,-2.37231 4.93397,-5.23489 z"
       id="path9" /><path
       style="fill:#ffffff;fill-opacity:1;stroke-width:4.52618"
       d="m 76.755537,98.134749 6.1858,-1.46431 0.0407,-1.69935 0.0407,-1.69936 -0.49535,0.0942 c -0.27247,0.0516 -2.32844,0.51734 -4.5689,1.03464 l -4.07356,0.94049 -0.0466,-0.66589 c -0.0272,-0.36617 -0.0272,-0.68599 0,-0.71057 0.0272,-0.0226 2.0834,-0.47855 4.57279,-1.00875 l 4.52618,-0.96403 0.0453,-1.6153 c 0.0317,-1.23986 -0.002,-1.6134 -0.15073,-1.60716 -0.10636,0.005 -2.16256,0.43226 -4.56899,0.95059 l -4.37528,0.94244 -0.0466,-0.66507 c -0.0272,-0.36572 -0.0272,-0.68518 0,-0.7098 0.0272,-0.0226 2.0834,-0.47851 4.5728,-1.0087 l 4.52618,-0.96403 0.0407,-1.61531 c 0.0317,-1.23935 -0.002,-1.61371 -0.15072,-1.60846 -0.10636,0.004 -3.11306,0.56713 -6.68123,1.2518 l -6.4875,1.24493 -0.0407,6.6007 -0.0407,6.60071 0.49195,-0.095 c 0.27067,-0.0521 3.27551,-0.75397 6.6777,-1.55931 z"
       id="path8" /><path
       style="fill:#ffffff;fill-opacity:1;stroke-width:4.52618"
       d="m 60.530457,91.212769 -0.005,-12.48469 -0.48403,0.54296 c -0.26614,0.29873 -2.41336,2.62391 -4.77141,5.16736 -4.20334,4.53387 -4.2988,4.62444 -4.87262,4.62444 -0.37486,0 -1.46423,-0.35938 -3.02998,-0.99938 -1.34459,-0.54971 -2.53038,-1.03251 -2.63508,-1.07298 -0.15168,-0.0584 -0.18236,1.11792 -0.15086,5.78509 l 0.0394,5.8586 7.76994,2.515201 c 4.27347,1.38338 7.85481,2.52266 7.95855,2.53167 0.14936,0.0136 0.18738,-2.56924 0.1824,-12.468271 z"
       id="path7" /></g></svg>
